<?xml version="1.0" encoding="UTF-8"?>
<svg xmlns="http://www.w3.org/2000/svg" width="320" height="476.037"
     viewBox="0 0 320 476.037">
    <path fill="#584b4f"
          d="M320 406.195l-86.506-155.403c-2.67 1.365-5.377 2.67-8.123 3.908-22.3 10.07-53.39 12.457-69.61 12.995l72.393 138.5H320z"></path>
    <path fill="#4F5B93"
          d="M255.323 36.793C231.543 12.263 199.5 0 159.193 0h-67.32C58.783 0 35.197 6.942 21.13 20.82 7.055 34.71.022 56.86.022 87.285v318.91h79.3V106.68c0-23.957 11.783-35.94 35.37-35.94h39.364c17.49 0 31.47 5.33 41.932 15.972 10.457 10.652 15.688 24.63 15.688 41.935 0 17.31-5.42 31.763-16.257 43.356-10.844 11.604-24.633 17.398-41.365 17.398h-16.168v-14.664L92.395 222.44l45.493 47.703v-14.54c8.476.042 50.736-.412 78.925-13.144 20.28-9.155 38.51-21.393 52.77-41.36s21.395-43.646 21.395-71.028c0-37.656-11.894-68.744-35.655-93.28z"></path>
</svg>