<?xml version="1.0" standalone="no"?>
<!DOCTYPE svg PUBLIC "-//W3C//DTD SVG 20010904//EN"
 "http://www.w3.org/TR/2001/REC-SVG-20010904/DTD/svg10.dtd">
<svg version="1.0" xmlns="http://www.w3.org/2000/svg"
 width="500.000000pt" height="500.000000pt" viewBox="0 0 500.000000 500.000000"
 preserveAspectRatio="xMidYMid meet">
<metadata>
Created by potrace 1.14, written by Peter Selinger 2001-2017
</metadata>
<g transform="translate(0.000000,500.000000) scale(0.100000,-0.100000)"
fill="#000000" stroke="none">
<path d="M2195 4039 c-22 -5 -58 -14 -80 -19 -111 -24 -179 -50 -315 -117
-123 -62 -119 -59 -235 -144 -148 -108 -306 -278 -400 -430 -73 -118 -165
-337 -186 -444 -4 -22 -12 -60 -18 -85 -13 -59 -13 -512 0 -570 6 -25 14 -65
18 -90 9 -49 36 -134 51 -162 6 -10 10 -23 10 -30 0 -21 104 -220 151 -290
124 -183 318 -371 490 -473 64 -38 237 -120 284 -135 22 -7 49 -16 60 -21 169
-67 575 -84 800 -34 41 9 165 45 190 55 66 26 210 94 240 113 199 124 306 214
426 357 45 54 149 204 149 215 0 3 10 22 23 43 19 31 65 129 97 207 10 24 46
148 55 190 38 171 38 509 0 680 -12 54 -47 170 -56 187 -5 10 -9 22 -9 27 0 9
-82 182 -103 216 -141 231 -298 395 -513 535 -82 53 -253 140 -277 140 -8 0
-17 3 -20 7 -14 13 -142 52 -173 53 -16 0 -36 6 -42 13 -16 15 -556 21 -617 6z"/>
</g>
</svg>
