<?xml version="1.0" encoding="utf-8"?>
<!-- Generator: Adobe Illustrator 17.0.0, SVG Export Plug-In . SVG Version: 6.00 Build 0)  -->
<!DOCTYPE svg PUBLIC "-//W3C//DTD SVG 1.1//EN" "http://www.w3.org/Graphics/SVG/1.1/DTD/svg11.dtd" [
	<!ENTITY ns_flows "http://ns.adobe.com/Flows/1.0/">
	<!ENTITY ns_extend "http://ns.adobe.com/Extensibility/1.0/">
	<!ENTITY ns_ai "http://ns.adobe.com/AdobeIllustrator/10.0/">
	<!ENTITY ns_graphs "http://ns.adobe.com/Graphs/1.0/">
]>
<svg version="1.1" id="Capa_1" xmlns:x="&ns_extend;" xmlns:i="&ns_ai;" xmlns:graph="&ns_graphs;"
	 xmlns="http://www.w3.org/2000/svg" xmlns:xlink="http://www.w3.org/1999/xlink" xmlns:a="http://ns.adobe.com/AdobeSVGViewerExtensions/3.0/"
	 x="0px" y="0px" width="72.5px" height="72.5px" viewBox="0 0 72.5 72.5" style="enable-background:new 0 0 72.5 72.5;"
	 xml:space="preserve">
<style type="text/css">
	.st0{fill:#2E2E2E;}
	.st1{fill:#E62886;}
	.st2{fill:#E72987;}
	.st3{fill:#3C3C3B;}
	.st4{fill:url(#SVGID_1_);}
	.st5{fill:url(#SVGID_2_);}
	.st6{fill:url(#SVGID_3_);}
	.st7{fill:url(#SVGID_4_);}
	.st8{fill:url(#SVGID_5_);}
	.st9{fill:url(#SVGID_6_);}
	.st10{fill:url(#SVGID_7_);}
	.st11{fill:url(#SVGID_8_);}
	.st12{fill:url(#SVGID_9_);}
	.st13{fill:url(#SVGID_10_);}
	.st14{fill:url(#SVGID_11_);}
	.st15{fill:url(#SVGID_12_);}
	.st16{fill:url(#SVGID_13_);}
</style>
<linearGradient id="SVGID_1_" gradientUnits="userSpaceOnUse" x1="0" y1="36.2288" x2="72.4576" y2="36.2288">
	<stop  offset="8.425245e-03" style="stop-color:#00CEC7"/>
	<stop  offset="1" style="stop-color:#50DEB3"/>
	<a:midPointStop  offset="8.425245e-03" style="stop-color:#00CEC7"/>
	<a:midPointStop  offset="0.5" style="stop-color:#00CEC7"/>
	<a:midPointStop  offset="1" style="stop-color:#50DEB3"/>
</linearGradient>
<path class="st4" d="M36.2,0C16.2,0,0,16.2,0,36.2c0,20,16.2,36.2,36.2,36.2s36.2-16.2,36.2-36.2C72.5,16.2,56.2,0,36.2,0z
	 M38.7,42.2H27c-2.4,0-4,2.2-4,4c0,1.8,1.4,4,4,4c0.7,0,1,0,1,0c2.2,0,4,1.8,4,4c0,2.2-1.8,4-4,4H16.2c-2.2,0-4-1.8-4-4
	c0-2.2,1.8-4,4-4h0.4c2.7,0,4.1-2.2,4.1-4c0-1.8-1.5-4-4.1-4h-0.9c-2.2,0-4-1.8-4-4c0-2.2,1.8-4,4-4h11.2c2.5,0,4-2.2,4-4
	c0-1.8-1.5-4-4-4H16.2c-2.2,0-4-1.8-4-4c0-2.2,1.8-4,4-4h28.9c2.2,0,4,1.8,4,4c0,2.2-1.8,4-4,4h-8c-2.5,0-4,2.2-4,4c0,1.8,1.5,4,4,4
	h1.7c2.2,0,4,1.8,4,4C42.7,40.5,40.9,42.2,38.7,42.2z M48.6,42.3c-2.2,0-4-1.8-4-4c0-2.2,1.8-4,4-4c2.2,0,4,1.8,4,4
	C52.6,40.5,50.8,42.3,48.6,42.3z M60.8,26.3h-5.6c-2.2,0-4-1.8-4-4c0-2.2,1.8-4,4-4h5.6c2.2,0,4,1.8,4,4
	C64.8,24.5,63,26.3,60.8,26.3z"/>
</svg>
